<?xml version="1.0" encoding="utf-8"?>
<!-- Generator: Adobe Illustrator 27.2.0, SVG Export Plug-In . SVG Version: 6.00 Build 0)  -->
<svg version="1.1" id="Layer_1" xmlns="http://www.w3.org/2000/svg" xmlns:xlink="http://www.w3.org/1999/xlink" x="0px" y="0px"
	 viewBox="0 0 170 49" style="enable-background:new 0 0 170 49;" xml:space="preserve">
<style type="text/css">
	.st0{fill:#FC8019;}
</style>
<path class="st0" d="M81.1,22.4l2.7-7.5h4.6L81.6,34h-1l-4.2-8.9c-0.2-0.4-0.4-0.9-0.6-1.4c-0.2,0.5-0.4,1-0.6,1.4L70.9,34h-1
	l-7-19.1h4.9l2.7,7.5c0.2,0.5,0.4,1.1,0.5,1.6c0.2-0.6,0.4-1.2,0.6-1.7l3.6-7.6h1l3.6,7.6c0.2,0.5,0.5,1.1,0.6,1.7
	C80.8,23.5,81,22.9,81.1,22.4z M93.9,33.4V14.5h4.7v18.9H93.9z M113.8,27.1v-4.2h8.7v8.5l-0.2,0.1c-1,0.8-3.6,2.2-7.2,2.2
	c-6,0-10.2-4-10.2-9.7c0-5.6,4.1-9.7,9.6-9.7c3.1,0,5.3,0.9,6.9,2.6l0.3,0.3l-3.2,3.2l-0.3-0.4c-0.9-0.9-1.8-1.5-3.6-1.5
	c-2.9,0-4.9,2.2-4.9,5.4c0,3.3,2.1,5.4,5.4,5.4c1.1,0,2.2-0.2,3-0.5v-1.8H113.8z M137.5,27.1v-4.2h8.7v8.5l-0.2,0.1
	c-1,0.8-3.6,2.2-7.2,2.2c-6,0-10.2-4-10.2-9.7c0-5.6,4.1-9.7,9.6-9.7c3.1,0,5.3,0.9,6.9,2.6l0.3,0.3l-3.2,3.2l-0.3-0.4
	c-0.9-0.9-1.8-1.5-3.7-1.5c-2.9,0-4.9,2.2-4.9,5.4c0,3.3,2.1,5.4,5.4,5.4c1.1,0,2.2-0.2,3-0.5v-1.8H137.5z M163.3,14.5h4.9
	l-6.7,12.6v6.3h-4.7v-6.1l-7.1-12.8h5.2l3.3,6c0.4,0.7,0.7,1.5,1,2.2c0.3-0.7,0.6-1.6,1-2.2L163.3,14.5z"/>
<g id="Layer_2">
	<path class="st0" d="M4.3,22.3C4,21,4.3,20,5,19.5c1-0.8,2.5-1.2,6.1-1.2c2.6,0,5.5,0,6.7,0c0.1,0,0.5-0.2,0.5-0.6l0-7.7
		c0-0.5-0.4-0.9-0.9-0.9h0c-0.5,0-0.9,0.4-0.9,0.9c0,0,0,4.2,0,5.7c0,0.1-0.1,0.5-0.4,0.6C14,16.8,3.2,16.4,3.3,14.4c0,0,0,0,0,0
		C4.3,6.3,11.1,0,19.5,0c2.6,0,5.1,0.6,7.3,1.7c5.3,2.7,9,8.2,8.9,14.5c-0.1,4.5-3,12.5-4.8,13.6c-0.8,0.5-1.9,0.3-6.8,0.3
		c-2.2,0-4.3,0-5.3,0c-0.1,0-0.7,0.1-0.7,0.7h0l0,5.9c0,0.5,0.4,0.9,0.9,0.9c0.5,0,0.9-0.4,0.9-0.9c0,0,0-2.4,0-3.2
		c0-0.2,0-0.6,0.6-0.8c2-0.9,8.3-0.3,8.7,0.6c0.1,0.4-0.6,1.8-1.7,3.6c-3.6,5.7-7.2,10.2-7.8,10.9c0,0-0.1,0.1-0.1,0.1
		C19,47.4,6.3,33.5,4.3,22.3z"/>
</g>
<g>
	<path class="st0" d="M59.4,34.9H39.7l10-14.8h-9.2v-4.6h18.9l-10,14.8h10V34.9z"/>
</g>
</svg>
